# xmcd
#
# Track frame offsets: 
#        150
#        9502
#        26277
#        41978
#        61834
#        73550
#        91145
#        110873
#        125870
#        139914
#        155143
#        170184
#        186272
#
# Disc length: 2782 seconds
#
# Revision: 0
# Processed by: cddbd v1.5.2PL0 Copyright (c) Steve Scherf et al.
# Submitted via: ExactAudioCopy v1.3
#
DISCID=c00adc0d
DTITLE=Bertrand Belin - Persona
DYEAR=2018
DGENRE=
TTITLE0=Bec
TTITLE1=Glissé redressé
TTITLE2=de corps et d'esprit
TTITLE3=Bronze
TTITLE4=Grand duc
TTITLE5=choses nouvelles
TTITLE6=sous les lilas
TTITLE7=sur le cul
TTITLE8=camarade
TTITLE9=vertical (dindon)
TTITLE10=nuits bleues
TTITLE11=l'opéra
TTITLE12=en rang (euclide)
EXTD=
EXTT0=
EXTT1=
EXTT2=
EXTT3=
EXTT4=
EXTT5=
EXTT6=
EXTT7=
EXTT8=
EXTT9=
EXTT10=
EXTT11=
EXTT12=
PLAYORDER=
